<mxfile host="app.diagrams.net" modified="2022-11-08T08:11:48.164Z" agent="5.0 (Windows NT 10.0; Win64; x64) AppleWebKit/537.36 (KHTML, like Gecko) Chrome/107.0.0.0 Safari/537.36" etag="Kw9_G_mMfYcYH9hnQpV-" version="20.5.1" type="github">
  <diagram id="OInQUNuNO3AYRQuPPQoJ" name="第 1 页">
    <mxGraphModel dx="1550" dy="1685" grid="1" gridSize="10" guides="1" tooltips="1" connect="1" arrows="1" fold="1" page="1" pageScale="1" pageWidth="1100" pageHeight="850" math="0" shadow="0">
      <root>
        <mxCell id="0" />
        <mxCell id="1" parent="0" />
        <mxCell id="mvXVn2V-p39kU3JAdQ17-17" value="&lt;span style=&quot;font-weight: 400;&quot;&gt;admin console&lt;/span&gt;" style="rounded=0;whiteSpace=wrap;html=1;dashed=1;strokeWidth=2;fillColor=none;verticalAlign=top;fontStyle=1" parent="1" vertex="1">
          <mxGeometry x="33" y="-831" width="1040" height="830" as="geometry" />
        </mxCell>
        <mxCell id="QJig1PqDdZKSu3nEvNay-28" value="&lt;span style=&quot;font-weight: 400;&quot;&gt;role &amp;amp; user&lt;/span&gt;" style="rounded=0;whiteSpace=wrap;html=1;dashed=1;strokeWidth=2;fillColor=none;verticalAlign=top;fontStyle=1" parent="1" vertex="1">
          <mxGeometry x="53" y="-798" width="590" height="110" as="geometry" />
        </mxCell>
        <mxCell id="QJig1PqDdZKSu3nEvNay-31" value="&lt;span style=&quot;font-weight: 400;&quot;&gt;role &amp;amp; user&lt;/span&gt;" style="rounded=0;whiteSpace=wrap;html=1;dashed=1;strokeWidth=2;fillColor=none;verticalAlign=top;fontStyle=1" parent="1" vertex="1">
          <mxGeometry x="53" y="-677" width="730" height="110" as="geometry" />
        </mxCell>
        <mxCell id="QJig1PqDdZKSu3nEvNay-32" value="&lt;span style=&quot;font-weight: 400;&quot;&gt;digibank app&lt;/span&gt;" style="rounded=0;whiteSpace=wrap;html=1;dashed=1;strokeWidth=2;fillColor=none;verticalAlign=top;fontStyle=1" parent="1" vertex="1">
          <mxGeometry x="53" y="-555" width="1000" height="180" as="geometry" />
        </mxCell>
        <mxCell id="QJig1PqDdZKSu3nEvNay-35" value="&lt;span style=&quot;font-weight: 400;&quot;&gt;system&lt;/span&gt;" style="rounded=0;whiteSpace=wrap;html=1;dashed=1;strokeWidth=2;fillColor=none;verticalAlign=top;fontStyle=1" parent="1" vertex="1">
          <mxGeometry x="53" y="-237" width="1000" height="107" as="geometry" />
        </mxCell>
        <mxCell id="QJig1PqDdZKSu3nEvNay-37" value="&lt;span style=&quot;font-weight: 400;&quot;&gt;interview&lt;/span&gt;" style="rounded=0;whiteSpace=wrap;html=1;dashed=1;strokeWidth=2;fillColor=none;verticalAlign=top;fontStyle=1" parent="1" vertex="1">
          <mxGeometry x="53" y="-361" width="1000" height="110" as="geometry" />
        </mxCell>
        <mxCell id="QJig1PqDdZKSu3nEvNay-29" value="&lt;span style=&quot;font-weight: 400;&quot;&gt;product&lt;/span&gt;" style="rounded=0;whiteSpace=wrap;html=1;dashed=1;strokeWidth=2;fillColor=none;verticalAlign=top;fontStyle=1" parent="1" vertex="1">
          <mxGeometry x="663" y="-798" width="300" height="110" as="geometry" />
        </mxCell>
        <mxCell id="mvXVn2V-p39kU3JAdQ17-35" value="user manager" style="rounded=0;whiteSpace=wrap;html=1;fontColor=#000000;fillColor=none;" parent="1" vertex="1">
          <mxGeometry x="69" y="-762" width="110" height="60" as="geometry" />
        </mxCell>
        <mxCell id="QJig1PqDdZKSu3nEvNay-1" value="role manager" style="rounded=0;whiteSpace=wrap;html=1;fontColor=#000000;fillColor=none;" parent="1" vertex="1">
          <mxGeometry x="219" y="-762" width="110" height="60" as="geometry" />
        </mxCell>
        <mxCell id="QJig1PqDdZKSu3nEvNay-2" value="permisson manager" style="rounded=0;whiteSpace=wrap;html=1;fontColor=#000000;fillColor=none;" parent="1" vertex="1">
          <mxGeometry x="369" y="-762" width="110" height="60" as="geometry" />
        </mxCell>
        <mxCell id="QJig1PqDdZKSu3nEvNay-3" value="product category manager" style="rounded=0;whiteSpace=wrap;html=1;fontColor=#000000;fillColor=none;" parent="1" vertex="1">
          <mxGeometry x="683" y="-762" width="110" height="60" as="geometry" />
        </mxCell>
        <mxCell id="QJig1PqDdZKSu3nEvNay-4" value="product manager" style="rounded=0;whiteSpace=wrap;html=1;fontColor=#000000;fillColor=none;" parent="1" vertex="1">
          <mxGeometry x="833" y="-762" width="110" height="60" as="geometry" />
        </mxCell>
        <mxCell id="QJig1PqDdZKSu3nEvNay-5" value="field manager" style="rounded=0;whiteSpace=wrap;html=1;fontColor=#000000;fillColor=none;" parent="1" vertex="1">
          <mxGeometry x="69" y="-643" width="110" height="60" as="geometry" />
        </mxCell>
        <mxCell id="QJig1PqDdZKSu3nEvNay-6" value="archived form view" style="rounded=0;whiteSpace=wrap;html=1;fontColor=#000000;fillColor=none;" parent="1" vertex="1">
          <mxGeometry x="509" y="-643" width="110" height="60" as="geometry" />
        </mxCell>
        <mxCell id="QJig1PqDdZKSu3nEvNay-7" value="form manager" style="rounded=0;whiteSpace=wrap;html=1;fontColor=#000000;fillColor=none;" parent="1" vertex="1">
          <mxGeometry x="365" y="-643" width="110" height="60" as="geometry" />
        </mxCell>
        <mxCell id="QJig1PqDdZKSu3nEvNay-8" value="screen manager" style="rounded=0;whiteSpace=wrap;html=1;fontColor=#000000;fillColor=none;" parent="1" vertex="1">
          <mxGeometry x="215" y="-643" width="110" height="60" as="geometry" />
        </mxCell>
        <mxCell id="QJig1PqDdZKSu3nEvNay-9" value="slp form view" style="rounded=0;whiteSpace=wrap;html=1;fontColor=#000000;fillColor=none;" parent="1" vertex="1">
          <mxGeometry x="649" y="-643" width="110" height="60" as="geometry" />
        </mxCell>
        <mxCell id="QJig1PqDdZKSu3nEvNay-10" value="customer manager" style="rounded=0;whiteSpace=wrap;html=1;fontColor=#000000;fillColor=none;" parent="1" vertex="1">
          <mxGeometry x="69" y="-525" width="110" height="60" as="geometry" />
        </mxCell>
        <mxCell id="QJig1PqDdZKSu3nEvNay-11" value="application view" style="rounded=0;whiteSpace=wrap;html=1;fontColor=#000000;fillColor=none;" parent="1" vertex="1">
          <mxGeometry x="215" y="-525" width="110" height="60" as="geometry" />
        </mxCell>
        <mxCell id="QJig1PqDdZKSu3nEvNay-12" value="app setting" style="rounded=0;whiteSpace=wrap;html=1;fontColor=#000000;fillColor=none;" parent="1" vertex="1">
          <mxGeometry x="365" y="-525" width="110" height="60" as="geometry" />
        </mxCell>
        <mxCell id="QJig1PqDdZKSu3nEvNay-13" value="screen text manager&amp;nbsp;" style="rounded=0;whiteSpace=wrap;html=1;fontColor=#000000;fillColor=none;" parent="1" vertex="1">
          <mxGeometry x="509" y="-525" width="110" height="60" as="geometry" />
        </mxCell>
        <mxCell id="QJig1PqDdZKSu3nEvNay-14" value="screen setting manager&amp;nbsp;" style="rounded=0;whiteSpace=wrap;html=1;fontColor=#000000;fillColor=none;" parent="1" vertex="1">
          <mxGeometry x="649" y="-525" width="110" height="60" as="geometry" />
        </mxCell>
        <mxCell id="QJig1PqDdZKSu3nEvNay-15" value="app id manager" style="rounded=0;whiteSpace=wrap;html=1;fontColor=#000000;fillColor=none;" parent="1" vertex="1">
          <mxGeometry x="789" y="-525" width="110" height="60" as="geometry" />
        </mxCell>
        <mxCell id="QJig1PqDdZKSu3nEvNay-16" value="device fingerprint view" style="rounded=0;whiteSpace=wrap;html=1;fontColor=#000000;fillColor=none;" parent="1" vertex="1">
          <mxGeometry x="923" y="-525" width="110" height="60" as="geometry" />
        </mxCell>
        <mxCell id="QJig1PqDdZKSu3nEvNay-17" value="app version view" style="rounded=0;whiteSpace=wrap;html=1;fontColor=#000000;fillColor=#FFCCCC;" parent="1" vertex="1">
          <mxGeometry x="69" y="-448" width="110" height="60" as="geometry" />
        </mxCell>
        <mxCell id="QJig1PqDdZKSu3nEvNay-18" value="appointment manager" style="rounded=0;whiteSpace=wrap;html=1;fontColor=#000000;fillColor=none;" parent="1" vertex="1">
          <mxGeometry x="69" y="-331" width="110" height="60" as="geometry" />
        </mxCell>
        <mxCell id="QJig1PqDdZKSu3nEvNay-19" value="question manager" style="rounded=0;whiteSpace=wrap;html=1;fontColor=#000000;fillColor=none;" parent="1" vertex="1">
          <mxGeometry x="219" y="-331" width="110" height="60" as="geometry" />
        </mxCell>
        <mxCell id="QJig1PqDdZKSu3nEvNay-20" value="interview report view" style="rounded=0;whiteSpace=wrap;html=1;fontColor=#000000;fillColor=none;" parent="1" vertex="1">
          <mxGeometry x="369" y="-331" width="110" height="60" as="geometry" />
        </mxCell>
        <mxCell id="QJig1PqDdZKSu3nEvNay-21" value="dictionary manager" style="rounded=0;whiteSpace=wrap;html=1;fontColor=#000000;fillColor=none;" parent="1" vertex="1">
          <mxGeometry x="69" y="-212" width="110" height="60" as="geometry" />
        </mxCell>
        <mxCell id="QJig1PqDdZKSu3nEvNay-22" value="configuration manager" style="rounded=0;whiteSpace=wrap;html=1;fontColor=#000000;fillColor=none;" parent="1" vertex="1">
          <mxGeometry x="215" y="-212" width="110" height="60" as="geometry" />
        </mxCell>
        <mxCell id="QJig1PqDdZKSu3nEvNay-23" value="error message manager" style="rounded=0;whiteSpace=wrap;html=1;fontColor=#000000;fillColor=none;" parent="1" vertex="1">
          <mxGeometry x="369" y="-212" width="110" height="60" as="geometry" />
        </mxCell>
        <mxCell id="QJig1PqDdZKSu3nEvNay-24" value="ocdb api manager" style="rounded=0;whiteSpace=wrap;html=1;fontColor=#000000;fillColor=none;" parent="1" vertex="1">
          <mxGeometry x="508" y="-212" width="110" height="60" as="geometry" />
        </mxCell>
        <mxCell id="QJig1PqDdZKSu3nEvNay-25" value="integrated api manager" style="rounded=0;whiteSpace=wrap;html=1;fontColor=#000000;fillColor=none;" parent="1" vertex="1">
          <mxGeometry x="649" y="-212" width="110" height="60" as="geometry" />
        </mxCell>
        <mxCell id="QJig1PqDdZKSu3nEvNay-26" value="audit trail manager" style="rounded=0;whiteSpace=wrap;html=1;fontColor=#000000;fillColor=#FFCCCC;" parent="1" vertex="1">
          <mxGeometry x="789" y="-212" width="110" height="60" as="geometry" />
        </mxCell>
        <mxCell id="QJig1PqDdZKSu3nEvNay-27" value="file manager" style="rounded=0;whiteSpace=wrap;html=1;fontColor=#000000;fillColor=none;" parent="1" vertex="1">
          <mxGeometry x="923" y="-212" width="110" height="60" as="geometry" />
        </mxCell>
        <mxCell id="QJig1PqDdZKSu3nEvNay-30" value="role permisson setting" style="rounded=0;whiteSpace=wrap;html=1;fontColor=#000000;fillColor=none;" parent="1" vertex="1">
          <mxGeometry x="513" y="-762" width="110" height="60" as="geometry" />
        </mxCell>
        <mxCell id="w4RuT8jq3Qop6qwaA7o0-1" value="&lt;span style=&quot;font-weight: 400;&quot;&gt;system&lt;/span&gt;" style="rounded=0;whiteSpace=wrap;html=1;dashed=1;strokeWidth=2;fillColor=none;verticalAlign=top;fontStyle=1" vertex="1" parent="1">
          <mxGeometry x="53" y="-118" width="1000" height="100" as="geometry" />
        </mxCell>
        <mxCell id="w4RuT8jq3Qop6qwaA7o0-2" value="dark / light" style="rounded=0;whiteSpace=wrap;html=1;fontColor=#000000;fillColor=none;" vertex="1" parent="1">
          <mxGeometry x="69" y="-98" width="110" height="60" as="geometry" />
        </mxCell>
      </root>
    </mxGraphModel>
  </diagram>
</mxfile>
